<svg width="50" height="50" viewBox="0 0 50 50" fill="none" xmlns="http://www.w3.org/2000/svg">
<path d="M45 0H5C2.23858 0 0 2.23858 0 5V45C0 47.7614 2.23858 50 5 50H45C47.7614 50 50 47.7614 50 45V5C50 2.23858 47.7614 0 45 0Z" fill="#8CC84B"/>
<path d="M23.937 8.72499C24.3343 8.50288 24.7818 8.38626 25.237 8.38626C25.6922 8.38626 26.1397 8.50288 26.537 8.72499C30.4957 10.9617 34.4547 13.198 38.414 15.434C38.7863 15.646 39.0964 15.9522 39.3132 16.3218C39.5299 16.6914 39.6457 17.1115 39.649 17.54V31.002C39.6413 31.4462 39.5139 31.8802 39.2804 32.2582C39.0469 32.6362 38.7158 32.9443 38.322 33.15C34.376 35.3747 30.431 37.6003 26.487 39.827C26.0822 40.0509 25.6249 40.1622 25.1625 40.1493C24.7002 40.1365 24.2497 40 23.858 39.754C22.6753 39.068 21.4917 38.3837 20.307 37.701C20.047 37.5832 19.8139 37.4133 19.622 37.202C19.773 37.002 20.043 36.973 20.262 36.884C20.748 36.7101 21.2167 36.4911 21.662 36.23C21.7181 36.1969 21.7828 36.1813 21.8479 36.1852C21.9129 36.1891 21.9753 36.2124 22.027 36.252C23.039 36.832 24.041 37.429 25.056 38.003C25.273 38.128 25.492 37.962 25.677 37.859C29.549 35.6703 33.4223 33.4843 37.297 31.301C37.3661 31.2665 37.4232 31.212 37.4608 31.1446C37.4985 31.0771 37.5149 30.9999 37.508 30.923C37.508 26.4837 37.508 22.0437 37.508 17.603C37.515 17.5166 37.4949 17.4302 37.4505 17.3558C37.406 17.2814 37.3394 17.2227 37.26 17.188C33.3267 14.9733 29.3953 12.7577 25.466 10.541C25.3978 10.4943 25.3171 10.4694 25.2345 10.4694C25.1519 10.4694 25.0712 10.4943 25.003 10.541C21.0697 12.757 17.1387 14.9737 13.21 17.191C13.1303 17.2248 13.0633 17.283 13.0186 17.3571C12.9738 17.4313 12.9537 17.5177 12.961 17.604C12.961 22.0433 12.961 26.4833 12.961 30.924C12.9542 31.0007 12.971 31.0777 13.0093 31.1446C13.0476 31.2114 13.1054 31.265 13.175 31.298C14.2243 31.8927 15.274 32.4857 16.324 33.077C16.6152 33.257 16.9411 33.3735 17.2803 33.419C17.6196 33.4645 17.9647 33.4379 18.293 33.341C18.5775 33.2337 18.8225 33.0423 18.9953 32.7921C19.1681 32.5419 19.2604 32.245 19.26 31.941C19.265 27.527 19.26 23.113 19.26 18.7C19.2588 18.6532 19.2676 18.6066 19.2856 18.5634C19.3037 18.5202 19.3308 18.4813 19.365 18.4493C19.3991 18.4173 19.4397 18.3928 19.484 18.3776C19.5283 18.3624 19.5753 18.3567 19.622 18.361C20.122 18.361 20.631 18.354 21.135 18.361C21.1838 18.3633 21.2315 18.3757 21.2751 18.3976C21.3188 18.4194 21.3573 18.4502 21.3883 18.4879C21.4193 18.5256 21.4421 18.5694 21.4551 18.6164C21.4682 18.6635 21.4712 18.7127 21.464 18.761C21.464 23.203 21.469 27.645 21.464 32.086C21.4975 32.6894 21.3686 33.2907 21.0907 33.8273C20.8128 34.3639 20.3961 34.8162 19.884 35.137C19.1996 35.456 18.4503 35.6113 17.6955 35.5906C16.9406 35.5699 16.201 35.3739 15.535 35.018C14.381 34.442 13.28 33.763 12.147 33.146C11.7537 32.9408 11.4231 32.6334 11.1899 32.2561C10.9567 31.8787 10.8296 31.4455 10.822 31.002V17.54C10.8254 17.1025 10.9459 16.674 11.171 16.2989C11.3961 15.9238 11.7176 15.6158 12.102 15.407C16.0487 13.181 19.9937 10.9537 23.937 8.72499Z" fill="#E6E6E6"/>
<path d="M27.378 18.048C29.1213 17.8223 30.8929 18.0934 32.489 18.83C33.0674 19.175 33.5456 19.6651 33.8762 20.2519C34.2069 20.8386 34.3785 21.5015 34.374 22.175C34.3515 22.2592 34.2994 22.3325 34.2272 22.3814C34.155 22.4302 34.0676 22.4514 33.981 22.441C33.481 22.441 32.981 22.448 32.481 22.441C32.3851 22.4348 32.2949 22.393 32.2281 22.3239C32.1613 22.2547 32.1228 22.1631 32.12 22.067C32.0634 21.7408 31.9366 21.4309 31.7482 21.1588C31.5598 20.8866 31.3143 20.6587 31.029 20.491C30.0795 20.1139 29.0541 19.9673 28.037 20.063C27.2875 20.0395 26.5461 20.224 25.895 20.596C25.6708 20.7698 25.5067 21.0096 25.4258 21.2815C25.3449 21.5534 25.3513 21.8439 25.444 22.112C25.604 22.493 26.044 22.612 26.404 22.729C28.478 23.271 30.675 23.217 32.709 23.929C33.1458 24.0502 33.549 24.2699 33.8877 24.5712C34.2264 24.8724 34.4916 25.2473 34.663 25.667C34.867 26.2625 34.9163 26.9 34.8062 27.5197C34.6962 28.1395 34.4305 28.7211 34.034 29.21C33.3168 29.9544 32.3852 30.4564 31.369 30.646C30.0454 30.9148 28.6876 30.9725 27.346 30.817C26.0584 30.7436 24.8238 30.2793 23.807 29.486C23.4036 29.1163 23.0868 28.6621 22.8793 28.1557C22.6719 27.6494 22.5789 27.1034 22.607 26.557C22.6161 26.4686 22.6598 26.3875 22.7286 26.3312C22.7974 26.275 22.8856 26.2483 22.974 26.257C23.474 26.257 23.979 26.252 24.482 26.257C24.5286 26.2559 24.5749 26.2641 24.6182 26.2811C24.6616 26.298 24.7012 26.3234 24.7347 26.3558C24.7682 26.3882 24.7949 26.4269 24.8133 26.4696C24.8317 26.5124 24.8415 26.5584 24.842 26.605C24.8671 26.9155 24.9555 27.2177 25.1016 27.4928C25.2478 27.768 25.4487 28.0103 25.692 28.205C26.7686 28.7347 27.9717 28.9536 29.166 28.837C30.1656 28.9121 31.1631 28.6669 32.014 28.137C32.2096 27.9458 32.352 27.7068 32.427 27.4438C32.5021 27.1807 32.5072 26.9026 32.442 26.637C32.32 26.193 31.855 25.986 31.456 25.851C29.409 25.203 27.187 25.438 25.156 24.706C24.7307 24.5816 24.3375 24.3664 24.0035 24.0753C23.6694 23.7843 23.4024 23.4242 23.221 23.02C22.988 22.4166 22.9292 21.7598 23.0512 21.1246C23.1732 20.4894 23.4711 19.9012 23.911 19.427C24.8694 18.581 26.0897 18.0905 27.367 18.038L27.378 18.048Z" fill="#E6E6E6"/>
</svg>
